<svg width="209" height="208" viewBox="0 0 209 208" fill="none" xmlns="http://www.w3.org/2000/svg">
<path d="M66.3352 59.9091H77.4773L103.676 123.901H104.58L130.778 59.9091H141.92V137H133.188V78.429H132.435L108.344 137H99.9119L75.821 78.429H75.0682V137H66.3352V59.9091Z" fill="black"/>
<path d="M66.3352 59.9091V58.9091H65.3352V59.9091H66.3352ZM77.4773 59.9091L78.4027 59.5302L78.1484 58.9091H77.4773V59.9091ZM103.676 123.901L102.751 124.279L103.005 124.901H103.676V123.901ZM104.58 123.901V124.901H105.251L105.505 124.279L104.58 123.901ZM130.778 59.9091V58.9091H130.107L129.853 59.5302L130.778 59.9091ZM141.92 59.9091H142.92V58.9091H141.92V59.9091ZM141.92 137V138H142.92V137H141.92ZM133.188 137H132.188V138H133.188V137ZM133.188 78.429H134.188V77.429H133.188V78.429ZM132.435 78.429V77.429H131.765L131.51 78.0486L132.435 78.429ZM108.344 137V138H109.014L109.269 137.38L108.344 137ZM99.9119 137L98.9871 137.38L99.242 138H99.9119V137ZM75.821 78.429L76.7458 78.0486L76.491 77.429H75.821V78.429ZM75.0682 78.429V77.429H74.0682V78.429H75.0682ZM75.0682 137V138H76.0682V137H75.0682ZM66.3352 137H65.3352V138H66.3352V137ZM66.3352 60.9091H77.4773V58.9091H66.3352V60.9091ZM76.5518 60.288L102.751 124.279L104.602 123.522L78.4027 59.5302L76.5518 60.288ZM103.676 124.901H104.58V122.901H103.676V124.901ZM105.505 124.279L131.704 60.288L129.853 59.5302L103.654 123.522L105.505 124.279ZM130.778 60.9091H141.92V58.9091H130.778V60.9091ZM140.92 59.9091V137H142.92V59.9091H140.92ZM141.92 136H133.188V138H141.92V136ZM134.188 137V78.429H132.188V137H134.188ZM133.188 77.429H132.435V79.429H133.188V77.429ZM131.51 78.0486L107.419 136.62L109.269 137.38L133.359 78.8094L131.51 78.0486ZM108.344 136H99.9119V138H108.344V136ZM100.837 136.62L76.7458 78.0486L74.8962 78.8094L98.9871 137.38L100.837 136.62ZM75.821 77.429H75.0682V79.429H75.821V77.429ZM74.0682 78.429V137H76.0682V78.429H74.0682ZM75.0682 136H66.3352V138H75.0682V136ZM67.3352 137V59.9091H65.3352V137H67.3352Z" fill="white"/>
<g filter="url(#filter0_di_339_3937)">
<circle cx="104.5" cy="100" r="95.5" stroke="black" stroke-width="9" shape-rendering="crispEdges"/>
</g>
<defs>
<filter id="filter0_di_339_3937" x="0.5" y="0" width="208" height="208" filterUnits="userSpaceOnUse" color-interpolation-filters="sRGB">
<feFlood flood-opacity="0" result="BackgroundImageFix"/>
<feColorMatrix in="SourceAlpha" type="matrix" values="0 0 0 0 0 0 0 0 0 0 0 0 0 0 0 0 0 0 127 0" result="hardAlpha"/>
<feOffset dy="4"/>
<feGaussianBlur stdDeviation="2"/>
<feComposite in2="hardAlpha" operator="out"/>
<feColorMatrix type="matrix" values="0 0 0 0 0 0 0 0 0 0 0 0 0 0 0 0 0 0 0.25 0"/>
<feBlend mode="normal" in2="BackgroundImageFix" result="effect1_dropShadow_339_3937"/>
<feBlend mode="normal" in="SourceGraphic" in2="effect1_dropShadow_339_3937" result="shape"/>
<feColorMatrix in="SourceAlpha" type="matrix" values="0 0 0 0 0 0 0 0 0 0 0 0 0 0 0 0 0 0 127 0" result="hardAlpha"/>
<feMorphology radius="1" operator="erode" in="SourceAlpha" result="effect2_innerShadow_339_3937"/>
<feOffset/>
<feComposite in2="hardAlpha" operator="arithmetic" k2="-1" k3="1"/>
<feColorMatrix type="matrix" values="0 0 0 0 1 0 0 0 0 1 0 0 0 0 1 0 0 0 1 0"/>
<feBlend mode="normal" in2="shape" result="effect2_innerShadow_339_3937"/>
</filter>
</defs>
</svg>
